# xmcd
#
# Track frame offsets: 
#        200
#        4135
#        23840
#        38227
#        46775
#        63425
#        84037
#        100175
#        124175
#        143227
#        170487
#        174640
#
# Disc length: 2630 seconds
#
# Revision: 1
# Processed by: cddbd v1.5.2PL0 Copyright (c) Steve Scherf et al.
# Submitted via: ExactAudioCopy v0.95b3
#
DISCID=920a440c
DTITLE=Franck Band - Liebeslieder
DYEAR=1989
DGENRE=Jazz
TTITLE0=Ragtime
TTITLE1=D.F.B.K.
TTITLE2=Swingtime - Part 1
TTITLE3=Swingtime - Part 2
TTITLE4=Bauerntanz 2
TTITLE5=Mach weiter, ich komme
TTITLE6=Bauerntanz 1
TTITLE7=Seb. Dominique
TTITLE8=2nd Eject
TTITLE9=Kleine Romanze
TTITLE10=Fanfare
TTITLE11=Julian
EXTD=YEAR: 1989
EXTT0=
EXTT1=
EXTT2=
EXTT3=
EXTT4=
EXTT5=
EXTT6=
EXTT7=
EXTT8=
EXTT9=
EXTT10=
EXTT11=
PLAYORDER=
